PathFileType	4	(X/Y/Z)	 s07c0103.trc
DataRate	CameraRate	NumFrames	NumMarkers	Units	OrigDataRate	OrigDataStartFrame	OrigNumFrames
200	200	6	47	mm	200	251	2000
Frame#	Time	racr			lacr			c7			jug			rlel			rdr			llel			ldr			s2			lic			ric			lasi			rasi			rpsi			lpsi			rgt			lgt			rth1			rth2			rth3			rth4			rlfc			rmfc			rsh1			rsh2			rsh3			rsh4			rcal			rtoe			rmt5			lth1			lth2			lth4			lth3			llfc			lmfc			lsh1			lsh2			lsh3			lsh4			llmal			lcal			ltoe			lmt5			SBIKE			LBIKE			RBIKE			
		X1	Y1	Z1	X2	Y2	Z2	X3	Y3	Z3	X4	Y4	Z4	X5	Y5	Z5	X6	Y6	Z6	X7	Y7	Z7	X8	Y8	Z8	X9	Y9	Z9	X10	Y10	Z10	X11	Y11	Z11	X12	Y12	Z12	X13	Y13	Z13	X14	Y14	Z14	X15	Y15	Z15	X16	Y16	Z16	X17	Y17	Z17	X18	Y18	Z18	X19	Y19	Z19	X20	Y20	Z20	X21	Y21	Z21	X22	Y22	Z22	X23	Y23	Z23	X24	Y24	Z24	X25	Y25	Z25	X26	Y26	Z26	X27	Y27	Z27	X28	Y28	Z28	X29	Y29	Z29	X30	Y30	Z30	X31	Y31	Z31	X32	Y32	Z32	X33	Y33	Z33	X34	Y34	Z34	X35	Y35	Z35	X36	Y36	Z36	X37	Y37	Z37	X38	Y38	Z38	X39	Y39	Z39	X40	Y40	Z40	X41	Y41	Z41	X42	Y42	Z42	X43	Y43	Z43	X44	Y44	Z44	X45	Y45	Z45	X46	Y46	Z46	X47	Y47	Z47	
251	1.2550	455.070110	1405.849614	-77.900646	449.341626	1390.715385	-370.214889	431.278026	1439.579103	-225.874773	390.259875	1300.487367	-220.962504	493.127296	1081.071481	45.943523	718.882388	912.362183	-54.762309	486.498511	1075.158615	-490.249646	724.765471	914.712493	-399.652044	-140.342607	1204.436263	-237.915202	24.875383	1242.662523	-362.515196	31.344130	1235.782382	-83.561121	57.055924	1166.982454	-352.068583	39.749342	1179.336072	-101.289266	-112.300052	1242.192481	-185.804148	-96.461441	1252.193390	-293.137757	-33.165962	1123.804392	-37.986035	-37.544374	1097.005819	-409.592339	109.823606	1070.679085	-38.390645	196.049286	1059.589303	-50.589997	267.188195	1012.440406	-47.479891	206.301336	1089.912466	-69.316000	386.414714	937.071591	-82.969605	380.484283	923.256858	-189.778254	335.457709	803.416939	-59.935337	321.336228	716.482917	-80.207232	270.698086	646.818284	-75.144332	337.367447	714.944662	-115.906947	141.804616	488.857079	-105.281625	427.878027	442.259237	-120.062381	348.167005	416.121396	-49.061084	24.780235	991.132178	-417.523216	96.767846	940.094526	-421.584584	124.786056	962.691380	-414.478345	133.949436	859.094747	-418.084454	232.971040	707.016329	-386.391589	222.636287	690.945286	-289.394864	146.369177	584.907270	-408.233052	114.259787	507.565818	-387.426304	46.540725	448.663407	-395.891028	119.561322	508.780854	-345.824370	-39.512472	346.333124	-392.954757	-119.156107	330.131391	-359.857024	149.541441	222.807714	-355.210772	66.295461	224.803247	-419.579338	-258.878230	967.584837	-232.302094	-75.647710	83.380368	-437.385475	-82.283927	79.476564	-40.027443	
252	1.2600	455.047227	1405.743584	-77.780266	449.425021	1390.662487	-370.146609	431.380775	1439.460596	-225.758258	390.357430	1300.394304	-220.974374	493.199192	1080.956928	45.946057	718.917820	912.331345	-54.766058	486.504967	1075.123878	-490.231951	724.767859	914.722664	-399.673968	-140.313695	1204.444693	-237.893965	24.920085	1242.662399	-362.497517	31.353565	1235.686357	-83.361874	57.096625	1166.950225	-352.050158	39.782972	1179.309832	-101.303517	-112.260878	1242.185676	-185.808105	-96.365044	1252.200303	-293.115436	-33.159962	1123.784246	-37.997000	-37.489402	1097.015481	-409.597686	109.815386	1070.581402	-38.347603	196.063377	1059.486551	-50.538727	267.213520	1012.302353	-47.510060	206.310493	1089.819792	-69.256316	386.416958	936.975699	-83.101889	380.471005	923.169348	-189.782817	335.398916	803.318751	-59.966432	321.286819	716.424908	-80.200014	270.635049	646.737276	-75.155107	337.324025	714.859770	-115.918264	141.742017	488.727211	-105.297171	427.836248	442.328265	-120.063827	348.160512	416.168917	-49.046852	24.810760	991.104695	-417.500178	96.807583	940.045947	-421.550013	124.831161	962.642726	-414.430034	133.984383	859.058287	-418.049027	232.993709	706.987769	-386.372330	222.624971	690.877531	-289.395803	146.394769	584.829561	-408.201595	114.276748	507.530902	-387.401260	46.532194	448.658081	-395.899852	119.542451	508.755638	-345.796780	-39.541057	346.313528	-392.959433	-119.186893	330.108995	-359.892882	149.541421	222.842594	-355.214083	66.291404	224.796138	-419.567765	-258.859374	967.579124	-232.284469	-75.667025	83.347576	-437.387422	-82.289010	79.515172	-40.013273	
253	1.2650	455.034805	1405.682023	-77.679613	449.520118	1390.639309	-370.039868	431.483183	1439.363901	-225.635714	390.410405	1300.295234	-220.893692	493.243004	1080.935100	45.995215	718.927063	912.306083	-54.768849	486.522167	1075.132208	-490.236026	724.790651	914.713914	-399.665815	-140.271404	1204.462851	-237.898027	24.980493	1242.657697	-362.452890	31.405588	1235.678446	-83.484849	57.145082	1166.939571	-352.067235	39.816870	1179.261546	-101.287177	-112.219059	1242.176729	-185.812562	-96.312855	1252.216858	-293.088167	-33.144664	1123.758506	-38.004798	-37.403864	1096.997497	-409.597191	109.848541	1070.436954	-38.304673	196.079560	1059.323590	-50.510858	267.191887	1012.193201	-47.497719	206.320815	1089.709838	-69.206872	386.416678	936.820854	-83.190886	380.439677	923.073080	-189.821793	335.334437	803.214578	-59.984464	321.209366	716.337299	-80.236187	270.548518	646.646195	-75.173292	337.266018	714.755776	-115.934791	141.682956	488.593786	-105.316506	427.507190	442.316531	-120.467777	348.137191	416.153265	-49.058020	24.877766	991.085857	-417.499077	96.867784	940.033121	-421.527158	124.883201	962.617753	-414.380984	134.016735	859.033629	-418.030494	233.039406	706.920443	-386.362488	222.609590	690.851130	-289.368605	146.417351	584.814207	-408.189564	114.272958	507.514068	-387.417469	46.522844	448.663216	-395.919784	119.513813	508.735906	-345.806509	-39.568410	346.306481	-392.991467	-119.219288	330.081692	-359.898377	149.510738	222.883946	-355.208771	66.277373	224.812274	-419.573682	-258.875466	967.581050	-232.271777	-75.671506	83.362005	-437.379500	-82.291395	79.501959	-39.999290	
254	1.2700	455.018444	1405.637021	-77.550008	449.623476	1390.621662	-369.954336	431.578163	1439.270313	-225.517452	390.482748	1300.232827	-220.849314	493.284113	1080.917289	46.064097	718.932629	912.304643	-54.784911	486.560073	1075.130392	-490.252726	724.790103	914.717472	-399.663509	-140.220608	1204.453130	-237.897250	25.011968	1242.647367	-362.399372	31.460370	1235.631033	-83.481332	57.180227	1166.917533	-352.077926	39.844642	1179.226888	-101.279752	-112.078864	1242.155020	-185.863414	-96.412961	1252.168563	-292.882471	-33.136291	1123.720176	-37.998909	-37.357286	1097.000751	-409.597847	109.880274	1070.322468	-38.257489	196.087148	1059.169747	-50.469884	267.168692	1012.066958	-47.491678	206.318810	1089.611292	-69.163772	386.377197	936.690078	-83.197290	380.419910	922.926975	-189.828517	335.278130	803.032334	-59.990962	321.152534	716.186559	-80.200824	270.492545	646.534804	-75.186101	337.218403	714.638005	-115.973677	141.621446	488.404246	-105.337876	427.488153	442.375086	-120.441205	348.123181	416.151666	-49.048993	24.965211	991.061605	-417.477811	96.920077	940.026583	-421.527782	124.943789	962.593727	-414.361164	134.076534	859.009008	-418.025792	233.073210	706.893018	-386.358893	222.610904	690.786741	-289.354588	146.420013	584.791613	-408.200452	114.256275	507.526374	-387.411805	46.507170	448.660522	-395.934753	119.496457	508.738093	-345.807037	-39.628907	346.315581	-393.025151	-119.260024	330.072149	-359.939540	149.499217	222.929653	-355.199562	66.266220	224.865509	-419.584473	-258.878104	967.581458	-232.272276	-75.670659	83.366760	-437.387357	-82.292994	79.511125	-40.003785	
255	1.2750	455.022604	1405.616506	-77.477012	449.732784	1390.582030	-369.822099	431.645294	1439.180903	-225.368325	390.572602	1300.143017	-220.780295	493.323767	1080.928038	46.147515	718.949047	912.313800	-54.755211	486.598529	1075.147558	-490.264577	724.789847	914.712861	-399.665615	-140.179379	1204.451030	-237.891735	25.084911	1242.626374	-362.389640	31.500512	1235.568835	-83.445161	57.222319	1166.869805	-352.058783	39.873722	1179.176871	-101.276918	-112.054794	1242.158853	-185.830578	-96.353015	1252.166510	-292.831093	-33.125910	1123.685226	-37.992153	-37.290418	1096.988355	-409.596347	109.874407	1070.198696	-38.210296	196.077055	1058.985582	-50.437787	267.163141	1011.904168	-47.461736	206.345498	1089.458326	-69.137175	386.348929	936.601003	-83.007680	380.372145	922.770046	-189.858987	335.212923	802.886476	-60.026831	321.137564	715.996851	-80.234320	270.425058	646.408460	-75.173838	337.157765	714.507864	-115.975204	141.549575	488.237302	-105.350098	427.457953	442.422297	-120.475706	348.108615	416.130226	-49.047302	25.028020	991.068769	-417.460710	96.996474	940.024352	-421.488047	125.008955	962.602839	-414.339733	134.145425	859.007120	-418.004152	233.117945	706.859562	-386.346678	222.613370	690.773151	-289.334387	146.468068	584.763060	-408.185630	114.249790	507.502976	-387.411992	46.488200	448.688994	-395.956439	119.557823	508.819742	-345.749954	-39.661511	346.351997	-393.056244	-119.318533	330.089299	-359.947921	149.462305	222.980916	-355.196442	66.205260	224.918042	-419.593348	-258.886877	967.585307	-232.274732	-75.667747	83.356536	-437.373129	-82.305025	79.486096	-39.997419	
256	1.2800	455.034425	1405.625476	-77.372704	449.846880	1390.545193	-369.665970	431.734765	1439.107855	-225.272025	390.660269	1300.096974	-220.705502	493.372447	1080.958683	46.278781	718.958235	912.344639	-54.719724	486.631634	1075.146103	-490.285333	724.800942	914.688246	-399.681573	-140.128569	1204.441799	-237.885272	25.142191	1242.614659	-362.337291	31.554725	1235.517012	-83.467991	57.278373	1166.844929	-352.056647	39.908848	1179.150587	-101.269111	-111.991242	1242.122123	-185.848465	-96.293520	1252.141563	-292.831092	-33.102625	1123.642063	-38.002934	-37.254584	1096.951281	-409.544466	109.880325	1070.026057	-38.178116	196.083992	1058.848859	-50.428742	267.149421	1011.692698	-47.474652	206.347690	1089.364046	-69.068136	386.325013	936.457779	-83.007677	380.341402	922.611943	-189.883036	335.150119	802.739628	-60.037732	321.075890	715.861216	-80.201419	270.352143	646.274448	-75.191794	337.107030	714.361112	-115.965711	141.479853	488.063614	-105.334808	427.429123	442.437383	-120.456258	348.134530	416.101533	-49.033236	25.103646	991.062362	-417.455222	97.074270	940.018247	-421.452519	125.096184	962.602216	-414.315587	134.222997	858.997408	-417.977561	233.172718	706.810104	-386.324243	222.634677	690.739439	-289.308889	146.514657	584.758828	-408.198317	114.252656	507.498512	-387.405356	46.479894	448.692856	-395.955032	119.522201	508.803400	-345.743289	-39.731049	346.361275	-393.062251	-119.376339	330.104254	-359.950192	149.422753	223.049775	-355.210897	66.174775	224.974060	-419.581027	-258.887235	967.586683	-232.284167	-75.667700	83.373036	-437.378056	-82.282599	79.481299	-40.007103	
